<svg width="192" height="52" viewBox="0 0 192 52" fill="none" xmlns="http://www.w3.org/2000/svg">
<g id="turbostart logo-03 1" clip-path="url(#clip0_472_579)">
<path id="Vector" d="M36.2984 28.6655C42.6355 28.6655 47.7113 33.7413 47.7113 40.1091C47.7113 45.9232 43.1585 51.522 36.2369 51.522C29.5922 51.522 24.7933 46.2309 24.7933 40.0784C24.7933 33.7105 29.8998 28.6347 36.2984 28.6347V28.6655Z" fill="#EAC360"/>
<path id="Vector_2" d="M11.5052 28.6654C17.8423 28.6654 22.9181 33.7412 22.9181 40.1091C22.9181 45.9232 18.3652 51.5219 11.4437 51.5219C4.79895 51.5527 0 46.2308 0 40.1091C0 33.7412 5.10658 28.6654 11.5052 28.6654Z" fill="#F16365"/>
<path id="Vector_3" d="M72.5396 40.1091C72.6318 46.2924 67.433 51.4912 61.1267 51.4912C54.9434 51.4912 49.56 46.3539 49.7445 39.74C49.9291 33.7105 54.9742 28.4501 61.6189 28.6962C67.7098 28.9423 72.6011 34.0181 72.5088 40.1091H72.5396Z" fill="#65B26E"/>
<path id="Vector_4" d="M73.7365 23.9587V0.948305C73.7365 0.948305 73.8595 0.88678 73.8903 0.88678C77.6741 0.88678 81.4578 0.88678 85.2416 0.948305C86.5336 0.948305 87.7949 1.28669 88.9331 1.9327C91.025 3.13244 91.7325 5.03972 91.5787 7.34691C91.4249 9.53104 90.3482 11.0999 88.2871 11.9305C88.1641 11.992 88.0718 12.0228 87.8257 12.1151C88.9946 12.515 89.9791 13.038 90.7174 13.8993C93.6706 17.3755 91.8863 22.6359 87.3642 23.6818C86.5952 23.8664 85.8261 23.9587 85.0571 23.9894C81.4271 23.9894 77.7971 23.9894 74.1671 23.9894C74.0441 23.9894 73.921 23.9894 73.7365 23.9894V23.9587ZM79.366 19.375C80.9656 19.375 82.473 19.4366 84.0111 19.375C85.2724 19.3135 86.0415 18.6675 86.2875 17.6831C86.749 15.8681 85.7031 14.4223 83.765 14.33C82.35 14.2685 80.9349 14.33 79.5198 14.33C79.4583 14.33 79.3967 14.3915 79.366 14.4223V19.4366V19.375ZM79.366 10.2386C80.9041 10.2386 82.3807 10.3001 83.8573 10.2386C84.6571 10.2078 85.3339 9.77714 85.6723 8.94656C86.3798 7.19309 85.3954 5.56268 83.5189 5.43963C82.2269 5.37811 80.9656 5.43963 79.6736 5.43963C79.5813 5.43963 79.489 5.50115 79.366 5.50115V10.2693V10.2386Z" fill="white"/>
<path id="Vector_5" d="M109.301 0.5177C116.192 0.5177 121.145 5.90114 120.96 12.7612C120.775 19.2213 115.761 24.3894 108.963 24.2356C102.533 24.0818 97.3959 18.9444 97.5804 11.8075C97.765 5.53199 102.841 0.5177 109.301 0.5177ZM103.302 12.3613C103.364 12.9765 103.395 13.6225 103.518 14.2378C104.041 17.0372 106.163 18.8521 108.963 18.9752C111.916 19.0983 114.192 17.4678 114.961 14.6685C115.3 13.4072 115.361 12.1459 115.115 10.8539C114.715 8.57747 113.638 6.79325 111.331 6.08571C108.993 5.37818 106.778 5.65504 105.025 7.50079C103.733 8.85434 103.364 10.5463 103.333 12.3613H103.302Z" fill="white"/>
<path id="Vector_6" d="M49.7437 0.948561C49.7437 0.948561 49.836 0.887036 49.8975 0.887036C53.589 0.917799 57.3113 0.794749 60.972 1.04085C65.894 1.34847 68.8165 5.8398 67.3399 10.5157C66.6631 12.6383 65.1557 13.9611 63.0946 14.6994C62.8793 14.7917 62.6332 14.8532 62.2948 14.9455C63.2177 16.4529 64.1098 17.9295 64.9712 19.4061C65.8633 20.8827 66.7554 22.39 67.7398 23.9897H66.8784C65.3095 23.9897 63.7407 23.9897 62.1718 23.9897C61.6796 23.9897 61.4027 23.8666 61.1566 23.4052C59.7723 20.9442 58.3572 18.514 56.9421 16.0529C56.4499 15.1608 56.4192 15.1608 55.281 15.3454V23.8974H49.6822V0.948561H49.7437ZM55.3733 11.4078C56.696 11.4078 57.9573 11.4078 59.1878 11.4078C59.3724 11.4078 59.5877 11.377 59.7723 11.3155C61.2489 11.0079 61.9564 10.1465 61.9564 8.60842C61.9564 7.03954 61.2181 5.90132 59.8031 5.74751C58.3572 5.5937 56.8806 5.71675 55.3733 5.71675V11.4078Z" fill="white"/>
<path id="Vector_7" d="M156.364 43.0931V51.6758H150.796V28.6655C150.981 28.6655 151.165 28.6347 151.35 28.6347C154.518 28.6347 157.687 28.6347 160.886 28.6347C163.224 28.6347 165.377 29.2807 167.008 31.0649C170.484 34.8487 168.792 41.0012 163.901 42.5086C163.747 42.5394 163.624 42.6009 163.409 42.6932C165.224 45.7079 167.008 48.6919 168.884 51.7681C167.162 51.7681 165.593 51.7066 164.024 51.7681C163.009 51.8296 162.455 51.4912 161.963 50.5991C160.763 48.3227 159.379 46.1386 158.148 43.8621C157.748 43.1238 157.256 42.8777 156.426 43.1238L156.364 43.0931ZM156.395 33.3721V39.0324C157.933 39.0324 159.41 39.1247 160.886 39.0017C161.44 38.9401 162.086 38.5402 162.455 38.0788C163.193 37.1559 163.163 36.0177 162.732 34.9103C162.301 33.8643 161.409 33.4337 160.363 33.3721C159.071 33.3106 157.748 33.3721 156.395 33.3721Z" fill="white"/>
<path id="Vector_8" d="M129.878 28.7886C131.97 28.7886 134 28.7886 136.061 28.7886C136.246 28.7886 136.492 29.0963 136.554 29.3116C138.215 33.7414 139.845 38.1712 141.476 42.6318C142.491 45.4311 143.537 48.1998 144.552 50.9992C144.613 51.2145 144.675 51.3991 144.767 51.6759C144.521 51.6759 144.367 51.7375 144.183 51.7375C142.583 51.7375 141.014 51.7375 139.415 51.7375C138.922 51.7375 138.738 51.5529 138.584 51.1222C138.246 50.0763 137.876 49.0304 137.538 47.9844C137.415 47.646 137.261 47.4922 136.892 47.4922C134.339 47.4922 131.816 47.4922 129.263 47.4922C128.863 47.4922 128.678 47.646 128.586 48.0152C128.248 49.1226 127.879 50.1993 127.479 51.276C127.417 51.4606 127.14 51.7067 126.986 51.7067C125.171 51.7375 123.387 51.7067 121.418 51.7067C124.249 44.0161 127.079 36.387 129.878 28.7579V28.7886ZM133.17 35.0642C133.17 35.0642 133.077 35.0642 133.047 35.0642C132.124 37.7713 131.201 40.5091 130.247 43.247H135.938C135.015 40.4784 134.093 37.802 133.17 35.0949V35.0642Z" fill="white"/>
<path id="Vector_9" d="M37.13 0.88678H42.7288C42.7288 1.10212 42.7596 1.31745 42.7596 1.53279C42.7596 5.65497 42.8211 9.74638 42.7596 13.8686C42.7596 15.2529 42.6058 16.7295 42.1751 18.0523C41.0676 21.5899 38.4836 23.528 34.8844 24.1125C33.1309 24.3893 31.3775 24.3278 29.6548 23.7741C26.1786 22.6666 24.3636 20.1749 23.7484 16.6679C23.6253 15.9604 23.5945 15.1913 23.5945 14.453C23.5945 10.2078 23.5945 5.96259 23.5945 1.71737C23.5945 1.47127 23.5945 1.1944 23.5945 0.917542H29.1933V1.71737C29.1933 5.90107 29.1933 10.1155 29.1933 14.2992C29.1933 14.8222 29.2241 15.3452 29.3471 15.8374C29.8393 18.0215 31.2236 18.9751 33.5924 18.8521C35.4689 18.7598 36.8224 17.437 37.0378 15.4067C37.0993 14.7914 37.1608 14.1454 37.1608 13.5302C37.1608 9.59257 37.1608 5.65497 37.1608 1.71737C37.1608 1.47127 37.1608 1.1944 37.1608 0.88678H37.13Z" fill="white"/>
<path id="Vector_10" d="M77.9222 44.7541H83.7979C83.9209 45.154 84.0132 45.4924 84.1363 45.8307C84.7208 47.2458 86.505 47.9534 87.9201 47.3073C89.2736 46.6921 89.5505 44.7848 88.3815 43.8312C87.7662 43.3082 86.9972 42.9698 86.2281 42.6314C84.5977 41.9547 82.9365 41.4009 81.3369 40.6626C78.9682 39.5552 77.7992 37.5864 77.7992 34.9716C77.7992 32.4183 78.8759 30.4187 81.1831 29.3113C84.5362 27.7116 87.9816 27.7116 91.2732 29.4959C93.4265 30.6341 94.4417 32.6029 94.657 35.0946H88.6276C88.5661 34.8793 88.5045 34.664 88.443 34.4486C87.9816 33.0335 86.6588 32.3568 85.213 32.7567C83.7364 33.1874 83.2749 35.0639 84.4439 36.1406C84.9053 36.5712 85.4591 36.8789 86.0435 37.125C87.3971 37.6787 88.8122 38.1709 90.1657 38.7246C90.8117 38.9707 91.4577 39.2783 92.0422 39.6475C96.1952 42.2008 96.1336 48.261 91.9499 50.7527C88.5968 52.7523 83.0596 52.2601 80.1064 49.6761C78.7221 48.4763 77.83 46.4768 77.8915 44.7848L77.9222 44.7541Z" fill="white"/>
<path id="Vector_11" d="M106.13 33.0952H99.9779V28.6654H118.005V33.0644H111.791V51.7065H106.13V33.0952Z" fill="white"/>
<path id="Vector_12" d="M18.0884 0.917664V5.34746H11.8743V23.928H6.24479V5.37823H0V0.917664H18.0884Z" fill="white"/>
<path id="Vector_13" d="M185.129 51.7066H179.499V33.1261H173.316V28.6963H191.374V33.0953H185.16V51.7066H185.129Z" fill="white"/>
</g>
<defs>
<clipPath id="clip0_472_579">
<rect width="191.343" height="51.4349" fill="white" transform="translate(0 0.5177)"/>
</clipPath>
</defs>
</svg>
